<mxfile host="app.diagrams.net" agent="Mozilla/5.0 (Windows NT 10.0; Win64; x64) AppleWebKit/537.36 (KHTML, like Gecko) Chrome/133.0.0.0 Safari/537.36 Edg/133.0.0.0" version="26.0.16">
  <diagram id="2hMGKqNAmMSg4jd7gIxZ" name="End to End Flow Chart">
    <mxGraphModel dx="1098" dy="455" grid="1" gridSize="10" guides="1" tooltips="1" connect="1" arrows="1" fold="1" page="1" pageScale="1" pageWidth="850" pageHeight="1100" math="0" shadow="0">
      <root>
        <mxCell id="0" />
        <mxCell id="1" parent="0" />
        <mxCell id="UC3RsiYhLARw-P8NjZ-x-1" value="Flow Chart of Data Engineering Project" style="swimlane;childLayout=stackLayout;resizeParent=1;resizeParentMax=0;startSize=20;html=1;" vertex="1" parent="1">
          <mxGeometry x="10.000000000000455" y="10" width="2330" height="680" as="geometry" />
        </mxCell>
        <mxCell id="UC3RsiYhLARw-P8NjZ-x-2" value="Data Sources" style="swimlane;startSize=40;html=1;" vertex="1" parent="UC3RsiYhLARw-P8NjZ-x-1">
          <mxGeometry y="20" width="250" height="660" as="geometry" />
        </mxCell>
        <mxCell id="UC3RsiYhLARw-P8NjZ-x-3" value="Data Sources" style="swimlane;whiteSpace=wrap;html=1;" vertex="1" parent="UC3RsiYhLARw-P8NjZ-x-2">
          <mxGeometry x="19.999999999999545" y="135" width="200" height="400" as="geometry" />
        </mxCell>
        <mxCell id="UC3RsiYhLARw-P8NjZ-x-4" value="Internal Databases" style="rounded=0;whiteSpace=wrap;html=1;" vertex="1" parent="UC3RsiYhLARw-P8NjZ-x-3">
          <mxGeometry x="40" y="45" width="120" height="60" as="geometry" />
        </mxCell>
        <mxCell id="UC3RsiYhLARw-P8NjZ-x-5" value="External APIs" style="rounded=0;whiteSpace=wrap;html=1;" vertex="1" parent="UC3RsiYhLARw-P8NjZ-x-3">
          <mxGeometry x="40" y="115" width="120" height="60" as="geometry" />
        </mxCell>
        <mxCell id="UC3RsiYhLARw-P8NjZ-x-6" value="Flat Files" style="rounded=0;whiteSpace=wrap;html=1;" vertex="1" parent="UC3RsiYhLARw-P8NjZ-x-3">
          <mxGeometry x="40" y="185" width="120" height="60" as="geometry" />
        </mxCell>
        <mxCell id="UC3RsiYhLARw-P8NjZ-x-7" value="Streaming Data" style="rounded=0;whiteSpace=wrap;html=1;" vertex="1" parent="UC3RsiYhLARw-P8NjZ-x-3">
          <mxGeometry x="40" y="255" width="120" height="60" as="geometry" />
        </mxCell>
        <mxCell id="UC3RsiYhLARw-P8NjZ-x-8" value="Third Party Data" style="rounded=0;whiteSpace=wrap;html=1;" vertex="1" parent="UC3RsiYhLARw-P8NjZ-x-3">
          <mxGeometry x="40" y="325" width="120" height="60" as="geometry" />
        </mxCell>
        <mxCell id="UC3RsiYhLARw-P8NjZ-x-9" value="Data Ingestion" style="swimlane;startSize=40;html=1;" vertex="1" parent="UC3RsiYhLARw-P8NjZ-x-1">
          <mxGeometry x="250" y="20" width="270" height="660" as="geometry" />
        </mxCell>
        <mxCell id="UC3RsiYhLARw-P8NjZ-x-10" value="Ingestion Method" style="swimlane;whiteSpace=wrap;html=1;startSize=23;" vertex="1" parent="UC3RsiYhLARw-P8NjZ-x-9">
          <mxGeometry x="40" y="100" width="200" height="470" as="geometry" />
        </mxCell>
        <mxCell id="UC3RsiYhLARw-P8NjZ-x-11" value="Batch Processing" style="rounded=0;whiteSpace=wrap;html=1;" vertex="1" parent="UC3RsiYhLARw-P8NjZ-x-10">
          <mxGeometry x="40" y="40" width="120" height="60" as="geometry" />
        </mxCell>
        <mxCell id="UC3RsiYhLARw-P8NjZ-x-12" value="Near Real Time Processing" style="rounded=0;whiteSpace=wrap;html=1;" vertex="1" parent="UC3RsiYhLARw-P8NjZ-x-10">
          <mxGeometry x="40" y="110" width="120" height="60" as="geometry" />
        </mxCell>
        <mxCell id="UC3RsiYhLARw-P8NjZ-x-13" value="Real Time Processing" style="rounded=0;whiteSpace=wrap;html=1;" vertex="1" parent="UC3RsiYhLARw-P8NjZ-x-10">
          <mxGeometry x="39.999999999999545" y="180" width="120" height="60" as="geometry" />
        </mxCell>
        <mxCell id="UC3RsiYhLARw-P8NjZ-x-14" value="Online Processing" style="rounded=0;whiteSpace=wrap;html=1;" vertex="1" parent="UC3RsiYhLARw-P8NjZ-x-10">
          <mxGeometry x="39.999999999999545" y="250" width="120" height="60" as="geometry" />
        </mxCell>
        <mxCell id="UC3RsiYhLARw-P8NjZ-x-15" value="Multi-Processing" style="rounded=0;whiteSpace=wrap;html=1;" vertex="1" parent="UC3RsiYhLARw-P8NjZ-x-10">
          <mxGeometry x="39.999999999999545" y="320" width="120" height="60" as="geometry" />
        </mxCell>
        <mxCell id="UC3RsiYhLARw-P8NjZ-x-16" value="Time Sharing" style="rounded=0;whiteSpace=wrap;html=1;" vertex="1" parent="UC3RsiYhLARw-P8NjZ-x-10">
          <mxGeometry x="39.999999999999545" y="390" width="120" height="60" as="geometry" />
        </mxCell>
        <mxCell id="UC3RsiYhLARw-P8NjZ-x-17" value="Data Storage&amp;nbsp;&lt;div&gt;(Landing Zone)&lt;/div&gt;" style="swimlane;startSize=40;html=1;" vertex="1" parent="UC3RsiYhLARw-P8NjZ-x-1">
          <mxGeometry x="520" y="20" width="270" height="660" as="geometry" />
        </mxCell>
        <mxCell id="UC3RsiYhLARw-P8NjZ-x-18" value="Data Storage" style="swimlane;whiteSpace=wrap;html=1;" vertex="1" parent="UC3RsiYhLARw-P8NjZ-x-17">
          <mxGeometry x="35" y="182.5" width="200" height="305" as="geometry" />
        </mxCell>
        <mxCell id="UC3RsiYhLARw-P8NjZ-x-19" style="edgeStyle=orthogonalEdgeStyle;rounded=0;orthogonalLoop=1;jettySize=auto;html=1;" edge="1" parent="UC3RsiYhLARw-P8NjZ-x-18" source="UC3RsiYhLARw-P8NjZ-x-20" target="UC3RsiYhLARw-P8NjZ-x-21">
          <mxGeometry relative="1" as="geometry" />
        </mxCell>
        <mxCell id="UC3RsiYhLARw-P8NjZ-x-20" value="Data Lake" style="rounded=0;whiteSpace=wrap;html=1;" vertex="1" parent="UC3RsiYhLARw-P8NjZ-x-18">
          <mxGeometry x="40" y="35" width="120" height="60" as="geometry" />
        </mxCell>
        <mxCell id="UC3RsiYhLARw-P8NjZ-x-21" value="Staging Area" style="rounded=0;whiteSpace=wrap;html=1;" vertex="1" parent="UC3RsiYhLARw-P8NjZ-x-18">
          <mxGeometry x="40" y="117.5" width="120" height="60" as="geometry" />
        </mxCell>
        <mxCell id="UC3RsiYhLARw-P8NjZ-x-22" value="Data Transformation&lt;div&gt;(Curated Zone)&lt;/div&gt;" style="swimlane;startSize=40;html=1;" vertex="1" parent="UC3RsiYhLARw-P8NjZ-x-1">
          <mxGeometry x="790" y="20" width="240" height="660" as="geometry" />
        </mxCell>
        <mxCell id="UC3RsiYhLARw-P8NjZ-x-23" value="Data Transformation" style="swimlane;whiteSpace=wrap;html=1;" vertex="1" parent="UC3RsiYhLARw-P8NjZ-x-22">
          <mxGeometry x="20" y="180" width="200" height="300" as="geometry" />
        </mxCell>
        <mxCell id="UC3RsiYhLARw-P8NjZ-x-24" style="edgeStyle=orthogonalEdgeStyle;rounded=0;orthogonalLoop=1;jettySize=auto;html=1;exitX=0.5;exitY=1;exitDx=0;exitDy=0;entryX=0.5;entryY=0;entryDx=0;entryDy=0;" edge="1" parent="UC3RsiYhLARw-P8NjZ-x-23" source="UC3RsiYhLARw-P8NjZ-x-25" target="UC3RsiYhLARw-P8NjZ-x-27">
          <mxGeometry relative="1" as="geometry" />
        </mxCell>
        <mxCell id="UC3RsiYhLARw-P8NjZ-x-25" value="Data Cleaning" style="rounded=0;whiteSpace=wrap;html=1;" vertex="1" parent="UC3RsiYhLARw-P8NjZ-x-23">
          <mxGeometry x="40" y="50" width="120" height="60" as="geometry" />
        </mxCell>
        <mxCell id="UC3RsiYhLARw-P8NjZ-x-26" style="edgeStyle=orthogonalEdgeStyle;rounded=0;orthogonalLoop=1;jettySize=auto;html=1;exitX=0.5;exitY=1;exitDx=0;exitDy=0;entryX=0.5;entryY=0;entryDx=0;entryDy=0;" edge="1" parent="UC3RsiYhLARw-P8NjZ-x-23" source="UC3RsiYhLARw-P8NjZ-x-27" target="UC3RsiYhLARw-P8NjZ-x-28">
          <mxGeometry relative="1" as="geometry" />
        </mxCell>
        <mxCell id="UC3RsiYhLARw-P8NjZ-x-27" value="Data Transformation" style="rounded=0;whiteSpace=wrap;html=1;" vertex="1" parent="UC3RsiYhLARw-P8NjZ-x-23">
          <mxGeometry x="40" y="130" width="120" height="60" as="geometry" />
        </mxCell>
        <mxCell id="UC3RsiYhLARw-P8NjZ-x-28" value="Data Aggregation" style="rounded=0;whiteSpace=wrap;html=1;" vertex="1" parent="UC3RsiYhLARw-P8NjZ-x-23">
          <mxGeometry x="40" y="210" width="120" height="60" as="geometry" />
        </mxCell>
        <mxCell id="UC3RsiYhLARw-P8NjZ-x-29" value="Data Modeling" style="swimlane;startSize=40;html=1;" vertex="1" parent="UC3RsiYhLARw-P8NjZ-x-1">
          <mxGeometry x="1030" y="20" width="280" height="660" as="geometry" />
        </mxCell>
        <mxCell id="UC3RsiYhLARw-P8NjZ-x-30" value="Data Modeling" style="swimlane;whiteSpace=wrap;html=1;" vertex="1" parent="UC3RsiYhLARw-P8NjZ-x-29">
          <mxGeometry x="40" y="180" width="200" height="300" as="geometry" />
        </mxCell>
        <mxCell id="UC3RsiYhLARw-P8NjZ-x-31" style="edgeStyle=orthogonalEdgeStyle;rounded=0;orthogonalLoop=1;jettySize=auto;html=1;" edge="1" parent="UC3RsiYhLARw-P8NjZ-x-30" source="UC3RsiYhLARw-P8NjZ-x-32" target="UC3RsiYhLARw-P8NjZ-x-34">
          <mxGeometry relative="1" as="geometry" />
        </mxCell>
        <mxCell id="UC3RsiYhLARw-P8NjZ-x-32" value="Dimensional Modeling" style="rounded=0;whiteSpace=wrap;html=1;" vertex="1" parent="UC3RsiYhLARw-P8NjZ-x-30">
          <mxGeometry x="40" y="50" width="120" height="60" as="geometry" />
        </mxCell>
        <mxCell id="UC3RsiYhLARw-P8NjZ-x-33" style="edgeStyle=orthogonalEdgeStyle;rounded=0;orthogonalLoop=1;jettySize=auto;html=1;" edge="1" parent="UC3RsiYhLARw-P8NjZ-x-30" source="UC3RsiYhLARw-P8NjZ-x-34" target="UC3RsiYhLARw-P8NjZ-x-35">
          <mxGeometry relative="1" as="geometry" />
        </mxCell>
        <mxCell id="UC3RsiYhLARw-P8NjZ-x-34" value="Schema Design" style="rounded=0;whiteSpace=wrap;html=1;" vertex="1" parent="UC3RsiYhLARw-P8NjZ-x-30">
          <mxGeometry x="40" y="130" width="120" height="60" as="geometry" />
        </mxCell>
        <mxCell id="UC3RsiYhLARw-P8NjZ-x-35" value="Query Optimization" style="rounded=0;whiteSpace=wrap;html=1;" vertex="1" parent="UC3RsiYhLARw-P8NjZ-x-30">
          <mxGeometry x="40" y="210" width="120" height="60" as="geometry" />
        </mxCell>
        <mxCell id="UC3RsiYhLARw-P8NjZ-x-36" value="Data Storage&lt;div&gt;(Final Zone)&lt;/div&gt;" style="swimlane;startSize=40;html=1;" vertex="1" parent="UC3RsiYhLARw-P8NjZ-x-1">
          <mxGeometry x="1310" y="20" width="260" height="660" as="geometry" />
        </mxCell>
        <mxCell id="UC3RsiYhLARw-P8NjZ-x-37" value="Data Storage (Processed)" style="swimlane;whiteSpace=wrap;html=1;" vertex="1" parent="UC3RsiYhLARw-P8NjZ-x-36">
          <mxGeometry x="20" y="180" width="220" height="300" as="geometry" />
        </mxCell>
        <mxCell id="UC3RsiYhLARw-P8NjZ-x-38" value="Data Warehouse" style="swimlane;whiteSpace=wrap;html=1;" vertex="1" parent="UC3RsiYhLARw-P8NjZ-x-37">
          <mxGeometry x="25" y="45" width="170" height="230" as="geometry" />
        </mxCell>
        <mxCell id="UC3RsiYhLARw-P8NjZ-x-39" value="Data Mart" style="rounded=0;whiteSpace=wrap;html=1;" vertex="1" parent="UC3RsiYhLARw-P8NjZ-x-38">
          <mxGeometry x="24.999999999999545" y="35" width="120" height="60" as="geometry" />
        </mxCell>
        <mxCell id="UC3RsiYhLARw-P8NjZ-x-40" value="Data Mart" style="rounded=0;whiteSpace=wrap;html=1;" vertex="1" parent="UC3RsiYhLARw-P8NjZ-x-38">
          <mxGeometry x="24.999999999999545" y="125" width="120" height="60" as="geometry" />
        </mxCell>
        <mxCell id="UC3RsiYhLARw-P8NjZ-x-41" value="Data Access&lt;div&gt;Security&lt;/div&gt;" style="swimlane;startSize=40;html=1;" vertex="1" parent="UC3RsiYhLARw-P8NjZ-x-1">
          <mxGeometry x="1570" y="20" width="260" height="660" as="geometry" />
        </mxCell>
        <mxCell id="UC3RsiYhLARw-P8NjZ-x-42" value="Data Access and Security" style="swimlane;whiteSpace=wrap;html=1;" vertex="1" parent="UC3RsiYhLARw-P8NjZ-x-41">
          <mxGeometry x="30" y="180" width="200" height="300" as="geometry" />
        </mxCell>
        <mxCell id="UC3RsiYhLARw-P8NjZ-x-43" value="Access Control" style="rounded=0;whiteSpace=wrap;html=1;" vertex="1" parent="UC3RsiYhLARw-P8NjZ-x-42">
          <mxGeometry x="39.999999999999545" y="40" width="120" height="60" as="geometry" />
        </mxCell>
        <mxCell id="UC3RsiYhLARw-P8NjZ-x-44" value="Data Encryption" style="rounded=0;whiteSpace=wrap;html=1;" vertex="1" parent="UC3RsiYhLARw-P8NjZ-x-42">
          <mxGeometry x="39.999999999999545" y="120" width="120" height="60" as="geometry" />
        </mxCell>
        <mxCell id="UC3RsiYhLARw-P8NjZ-x-45" value="Audit Logging" style="rounded=0;whiteSpace=wrap;html=1;" vertex="1" parent="UC3RsiYhLARw-P8NjZ-x-42">
          <mxGeometry x="39.999999999999545" y="210" width="120" height="60" as="geometry" />
        </mxCell>
        <mxCell id="UC3RsiYhLARw-P8NjZ-x-46" value="Data Visualization&lt;div&gt;Reporting&lt;/div&gt;" style="swimlane;startSize=40;html=1;" vertex="1" parent="UC3RsiYhLARw-P8NjZ-x-1">
          <mxGeometry x="1830" y="20" width="240" height="660" as="geometry" />
        </mxCell>
        <mxCell id="UC3RsiYhLARw-P8NjZ-x-47" value="Visualizations and Reporting" style="swimlane;whiteSpace=wrap;html=1;" vertex="1" parent="UC3RsiYhLARw-P8NjZ-x-46">
          <mxGeometry x="20" y="180" width="200" height="300" as="geometry" />
        </mxCell>
        <mxCell id="UC3RsiYhLARw-P8NjZ-x-48" value="BI Tools" style="rounded=0;whiteSpace=wrap;html=1;" vertex="1" parent="UC3RsiYhLARw-P8NjZ-x-47">
          <mxGeometry x="39.999999999999545" y="37" width="120" height="60" as="geometry" />
        </mxCell>
        <mxCell id="UC3RsiYhLARw-P8NjZ-x-49" value="Custom Apps" style="rounded=0;whiteSpace=wrap;html=1;" vertex="1" parent="UC3RsiYhLARw-P8NjZ-x-47">
          <mxGeometry x="39.999999999999545" y="117" width="120" height="60" as="geometry" />
        </mxCell>
        <mxCell id="UC3RsiYhLARw-P8NjZ-x-50" value="Reports Generation" style="rounded=0;whiteSpace=wrap;html=1;" vertex="1" parent="UC3RsiYhLARw-P8NjZ-x-47">
          <mxGeometry x="39.999999999999545" y="197" width="120" height="60" as="geometry" />
        </mxCell>
        <mxCell id="UC3RsiYhLARw-P8NjZ-x-51" value="Monitoring and&amp;nbsp;&lt;div&gt;Maintenance&lt;/div&gt;" style="swimlane;startSize=40;html=1;" vertex="1" parent="UC3RsiYhLARw-P8NjZ-x-1">
          <mxGeometry x="2070" y="20" width="260" height="660" as="geometry" />
        </mxCell>
        <mxCell id="UC3RsiYhLARw-P8NjZ-x-52" value="Monitoring and Maintenance" style="swimlane;whiteSpace=wrap;html=1;" vertex="1" parent="UC3RsiYhLARw-P8NjZ-x-51">
          <mxGeometry x="30" y="142.5" width="200" height="375" as="geometry" />
        </mxCell>
        <mxCell id="UC3RsiYhLARw-P8NjZ-x-53" value="Data Quality Monitoring" style="rounded=0;whiteSpace=wrap;html=1;" vertex="1" parent="UC3RsiYhLARw-P8NjZ-x-52">
          <mxGeometry x="39.999999999999545" y="35" width="120" height="60" as="geometry" />
        </mxCell>
        <mxCell id="UC3RsiYhLARw-P8NjZ-x-54" value="Performance Monitoring" style="rounded=0;whiteSpace=wrap;html=1;" vertex="1" parent="UC3RsiYhLARw-P8NjZ-x-52">
          <mxGeometry x="39.999999999999545" y="115" width="120" height="60" as="geometry" />
        </mxCell>
        <mxCell id="UC3RsiYhLARw-P8NjZ-x-55" value="Error Handling" style="rounded=0;whiteSpace=wrap;html=1;" vertex="1" parent="UC3RsiYhLARw-P8NjZ-x-52">
          <mxGeometry x="39.999999999999545" y="205" width="120" height="60" as="geometry" />
        </mxCell>
        <mxCell id="UC3RsiYhLARw-P8NjZ-x-56" value="Regular Maintenance" style="rounded=0;whiteSpace=wrap;html=1;" vertex="1" parent="UC3RsiYhLARw-P8NjZ-x-52">
          <mxGeometry x="39.999999999999545" y="285" width="120" height="60" as="geometry" />
        </mxCell>
        <mxCell id="UC3RsiYhLARw-P8NjZ-x-57" style="edgeStyle=orthogonalEdgeStyle;rounded=0;orthogonalLoop=1;jettySize=auto;html=1;exitX=1;exitY=0.5;exitDx=0;exitDy=0;entryX=0;entryY=0.5;entryDx=0;entryDy=0;" edge="1" parent="UC3RsiYhLARw-P8NjZ-x-1" source="UC3RsiYhLARw-P8NjZ-x-3" target="UC3RsiYhLARw-P8NjZ-x-10">
          <mxGeometry relative="1" as="geometry" />
        </mxCell>
        <mxCell id="UC3RsiYhLARw-P8NjZ-x-58" style="edgeStyle=orthogonalEdgeStyle;rounded=0;orthogonalLoop=1;jettySize=auto;html=1;exitX=1;exitY=0.5;exitDx=0;exitDy=0;entryX=0;entryY=0.5;entryDx=0;entryDy=0;" edge="1" parent="UC3RsiYhLARw-P8NjZ-x-1" source="UC3RsiYhLARw-P8NjZ-x-10" target="UC3RsiYhLARw-P8NjZ-x-18">
          <mxGeometry relative="1" as="geometry" />
        </mxCell>
        <mxCell id="UC3RsiYhLARw-P8NjZ-x-59" style="edgeStyle=orthogonalEdgeStyle;rounded=0;orthogonalLoop=1;jettySize=auto;html=1;entryX=0;entryY=0.5;entryDx=0;entryDy=0;" edge="1" parent="UC3RsiYhLARw-P8NjZ-x-1" source="UC3RsiYhLARw-P8NjZ-x-21" target="UC3RsiYhLARw-P8NjZ-x-23">
          <mxGeometry relative="1" as="geometry" />
        </mxCell>
        <mxCell id="UC3RsiYhLARw-P8NjZ-x-60" style="edgeStyle=orthogonalEdgeStyle;rounded=0;orthogonalLoop=1;jettySize=auto;html=1;exitX=1;exitY=0.5;exitDx=0;exitDy=0;entryX=0;entryY=0.5;entryDx=0;entryDy=0;" edge="1" parent="UC3RsiYhLARw-P8NjZ-x-1" source="UC3RsiYhLARw-P8NjZ-x-23" target="UC3RsiYhLARw-P8NjZ-x-30">
          <mxGeometry relative="1" as="geometry" />
        </mxCell>
        <mxCell id="UC3RsiYhLARw-P8NjZ-x-61" style="edgeStyle=orthogonalEdgeStyle;rounded=0;orthogonalLoop=1;jettySize=auto;html=1;entryX=0;entryY=0.5;entryDx=0;entryDy=0;" edge="1" parent="UC3RsiYhLARw-P8NjZ-x-1" source="UC3RsiYhLARw-P8NjZ-x-30" target="UC3RsiYhLARw-P8NjZ-x-37">
          <mxGeometry relative="1" as="geometry" />
        </mxCell>
        <mxCell id="UC3RsiYhLARw-P8NjZ-x-62" style="edgeStyle=orthogonalEdgeStyle;rounded=0;orthogonalLoop=1;jettySize=auto;html=1;entryX=0;entryY=0.5;entryDx=0;entryDy=0;" edge="1" parent="UC3RsiYhLARw-P8NjZ-x-1" source="UC3RsiYhLARw-P8NjZ-x-37" target="UC3RsiYhLARw-P8NjZ-x-42">
          <mxGeometry relative="1" as="geometry" />
        </mxCell>
        <mxCell id="UC3RsiYhLARw-P8NjZ-x-63" style="edgeStyle=orthogonalEdgeStyle;rounded=0;orthogonalLoop=1;jettySize=auto;html=1;exitX=1;exitY=0.5;exitDx=0;exitDy=0;entryX=0;entryY=0.5;entryDx=0;entryDy=0;" edge="1" parent="UC3RsiYhLARw-P8NjZ-x-1" source="UC3RsiYhLARw-P8NjZ-x-42" target="UC3RsiYhLARw-P8NjZ-x-47">
          <mxGeometry relative="1" as="geometry" />
        </mxCell>
        <mxCell id="UC3RsiYhLARw-P8NjZ-x-64" style="edgeStyle=orthogonalEdgeStyle;rounded=0;orthogonalLoop=1;jettySize=auto;html=1;exitX=1;exitY=0.5;exitDx=0;exitDy=0;entryX=0;entryY=0.5;entryDx=0;entryDy=0;" edge="1" parent="UC3RsiYhLARw-P8NjZ-x-1" source="UC3RsiYhLARw-P8NjZ-x-47" target="UC3RsiYhLARw-P8NjZ-x-52">
          <mxGeometry relative="1" as="geometry" />
        </mxCell>
      </root>
    </mxGraphModel>
  </diagram>
</mxfile>
